<svg xmlns="http://www.w3.org/2000/svg" width="800" height="800" fill="none" viewBox="0 0 48 48"><circle cx="24" cy="24" r="20" fill="#181717"/><path fill="#fff" d="M6.81 34.23a20.05 20.05 0 0 0 10.87 8.75c1 .18 1.36-.44 1.36-.97V40.9L19 38.6c-5.56 1.21-6.73-2.68-6.73-2.68-.91-2.3-2.22-2.92-2.22-2.92-1.82-1.24.13-1.22.13-1.22 2.01.14 3.07 2.06 3.07 2.06 1.78 3.06 4.68 2.17 5.82 1.66.18-1.29.7-2.17 1.27-2.67-4.44-.5-9.11-2.22-9.11-9.89 0-2.18.78-3.96 2.06-5.36-.2-.5-.9-2.54.2-5.3 0 0 1.67-.53 5.5 2.05a19.19 19.19 0 0 1 10 0c3.82-2.58 5.5-2.05 5.5-2.05 1.1 2.76.4 4.8.2 5.3a7.72 7.72 0 0 1 2.06 5.36c0 7.69-4.68 9.38-9.13 9.87.71.62 1.35 1.84 1.35 3.7l-.01 4.38-.01 1.11c0 .54.36 1.16 1.37.97A20.05 20.05 0 0 0 24 44c-7.3 0-13.7-3.92-17.19-9.77z"/></svg>