<svg xmlns="http://www.w3.org/2000/svg" width="800" height="800" viewBox="0 0 48 48" fill="none" xmlns:v="https://vecta.io/nano"><circle cx="24" cy="24" r="20" fill="#181717"/><path d="M6.813 34.235c2.435 4.079 6.28 7.218 10.864 8.743 1.001.183 1.365-.435 1.365-.965l-.009-1.127-.018-2.274c-5.563 1.208-6.737-2.681-6.737-2.681-.91-2.309-2.221-2.925-2.221-2.925-1.816-1.241.137-1.217.137-1.217 2.007.142 3.063 2.062 3.063 2.062 1.784 3.056 4.682 2.173 5.821 1.662.182-1.293.697-2.174 1.27-2.674-4.441-.505-9.11-2.221-9.11-9.885 0-2.183.78-3.968 2.059-5.367-.206-.506-.893-2.539.195-5.293 0 0 1.68-.538 5.501 2.05 1.595-.443 3.306-.665 5.007-.673 1.698.007 3.41.23 5.007.673 3.818-2.588 5.494-2.05 5.494-2.05 1.091 2.754.405 4.787.199 5.293 1.282 1.398 2.057 3.184 2.057 5.367 0 7.684-4.677 9.374-9.132 9.869.718.618 1.358 1.838 1.358 3.704l-.018 4.376-.006 1.11c0 .535.36 1.158 1.375.963 3.651-1.219 6.834-3.461 9.207-6.386C35.873 41.111 30.274 44 24 44c-7.305 0-13.696-3.917-17.186-9.765z" fill="#fff"/></svg>