<svg xmlns="http://www.w3.org/2000/svg" width="800" height="800" viewBox="0 0 32 32"><path fill="#444" d="M9.63 7.97h3.75v10.51c0 4.74-2.27 6.4-5.9 6.4-.88 0-2.02-.15-2.76-.4l.42-3.04a6.18 6.18 0 0 0 1.93.3c1.58 0 2.56-.72 2.56-3.28V7.96zm7.01 12.78a9.51 9.51 0 0 0 4.17 1.04c1.73 0 2.64-.72 2.64-1.83 0-1-.79-1.63-2.79-2.32-2.76-.98-4.59-2.51-4.59-4.96 0-2.84 2.4-4.98 6.3-4.98 1.9 0 3.25.37 4.24.84l-.84 3a7.78 7.78 0 0 0-3.45-.78c-1.63 0-2.42.76-2.42 1.6 0 1.06.91 1.53 3.08 2.37 2.94 1.09 4.3 2.62 4.3 4.99 0 2.78-2.12 5.15-6.69 5.15-1.9 0-3.78-.51-4.71-1.03l.76-3.09z"/></svg>