<svg xmlns="http://www.w3.org/2000/svg" viewBox="0 0 594 755.47"><path fill="#444" d="M434 273.25a275.64 275.64 0 0 0-8.22-46.41c-12.63-47.86-33.66-93.68-63.31-133.4a335.53 335.53 0 0 0-26.15-30.95c-9.61-10.08-20.28-19.34-27-31.88l-12.4-24c-.06 2.5-.23 5-.23 7.49 0-2.5.19-5 .23-7.51l-2.63-6.61a13.43 13.43 0 0 0-.73 2.61c-.34 13-7.74 21.88-16.93 30.14-10.34 9.29-20 19.37-29.92 29.11.34.45.73.89 1.11 1.34-.38-.45-.77-.87-1.11-1.34-29.56 38.87-55.6 80.43-70.93 127.08a297.05 297.05 0 0 0-10.45 41.54c-5.23 29.92-7.65 59-6 89.3a241.45 241.45 0 0 0 8.23 49.45c15.85 58.94 48.06 107.81 92.08 149.34 8.18 7.72 17 14.73 25.56 22.09 0-.08 0-.14.06-.23 0 .09 0 .15-.06.23l3.78 13 3.51 20.12 1.68 21c0 4.26-.2 8.55.06 12.79.06 1.09 1.49 2.1 2.28 3.15a.42.42 0 0 1 .08-.12.42.42 0 0 1-.08.12l7.13 2.51 7.42 2.88-1.27-18.66-.06-18.39-.43.43.43-.43q1.26-14 2.56-28l1.86-6.1 5.31-9.44c6.57-5.29 13.62-10.08 19.62-16 10.83-10.64 21.64-21.41 31.32-33.07a248.9 248.9 0 0 0 32.08-49.31c24.71-50.33 36.14-106.45 31.6-162.42 0-.48-.09-1-.13-1.49z"/><text fill="#444" font-family="MyriadPro-Regular,Myriad Pro" font-size="140" transform="translate(0 720.47)"><tspan letter-spacing=".01em">M</tspan><tspan x="113.4" y="0">ongoDB</tspan></text></svg>