<svg xmlns="http://www.w3.org/2000/svg" width="800" height="800" viewBox="0 0 512 512"><path d="M437.33 213.33c5.9 0 10.67-4.78 10.67-10.66v-128a53.4 53.4 0 0 0-53.33-53.34H53.33A53.4 53.4 0 0 0 0 74.67v362.66a53.4 53.4 0 0 0 53.33 53.34h341.34A53.4 53.4 0 0 0 448 437.33v-64a10.67 10.67 0 0 0-21.33 0v64c0 17.65-14.36 32-32 32H53.33c-17.64 0-32-14.35-32-32V128h405.34v74.67c0 5.89 4.77 10.66 10.66 10.66zm-416-106.66v-32c0-17.65 14.36-32 32-32h341.34c17.64 0 32 14.35 32 32v32H21.33z"/><circle cx="53.33" cy="74.67" r="10.67"/><circle cx="96" cy="74.67" r="10.67"/><circle cx="138.67" cy="74.67" r="10.67"/><path d="m280.66 277.74-3.16-.53c-18.7-3.06-21.5-7.92-21.5-10.54 0-4.25 8.51-10.67 21.36-10.67 12.6 0 20.92 6 21.35 10.3a10.5 10.5 0 0 0 11.63 9.6 10.66 10.66 0 0 0 9.6-11.62c-1.62-16.9-19.93-29.63-42.6-29.63-23.94 0-42.7 14.05-42.7 32 0 16.7 13.25 27.32 39.4 31.59l1.74-10.52 1.43 11.05c17.72 2.93 21.44 7.36 21.44 10.56 0 4.25-8.52 10.67-21.36 10.67-12.6 0-20.93-6.02-21.35-10.32-.56-5.87-5.74-10.37-11.63-9.6a10.66 10.66 0 0 0-9.6 11.62c1.62 16.9 19.92 29.63 42.6 29.63 23.94 0 42.69-14.05 42.69-32 0-16.68-13.23-27.3-39.34-31.6zm146-11.07c0-17.65-14.35-32-32-32h-21.33c-17.64 0-32 14.35-32 32v42.66c0 17.65 14.36 32 32 32h21.34c4.93 0 9.53-1.21 13.7-3.2l.08.09a10.72 10.72 0 0 0 15.08 0 10.67 10.67 0 0 0 0-15.08l-.08-.09a31.5 31.5 0 0 0 3.22-13.72v-42.66zm-21.33 38.27-3.13-3.14a10.67 10.67 0 0 0-15.09 15.09l3.12 3.11h-16.9a10.67 10.67 0 0 1-10.66-10.67v-42.66c0-5.9 4.77-10.67 10.66-10.67h21.34c5.88 0 10.66 4.78 10.66 10.67v38.27zm96 15.06h-32v-74.67a10.67 10.67 0 0 0-21.33 0v85.34c0 5.88 4.78 10.66 10.67 10.66h42.66a10.67 10.67 0 0 0 0-21.33zm-293.88-41.56a10.67 10.67 0 0 0-14.32 4.78l-11.8 23.6-11.8-23.58a10.66 10.66 0 1 0-19.09 9.54l18.95 37.9-18.95 37.88a10.71 10.71 0 0 0 4.8 14.31A10.63 10.63 0 0 0 160 384a10.7 10.7 0 0 0 9.56-5.9l42.66-85.34a10.69 10.69 0 0 0-4.78-14.32zm-86.75-43.22a10.67 10.67 0 0 0-11.9 3.71l-23.47 31.28-23.46-31.28a10.62 10.62 0 0 0-11.9-3.7 10.67 10.67 0 0 0-7.3 10.1v85.34a10.67 10.67 0 0 0 21.33 0v-53.34l12.8 17.07c4.03 5.38 13.06 5.38 17.07 0l12.8-17.07v53.34c0 5.88 4.78 10.66 10.66 10.66A10.67 10.67 0 0 0 128 330.67v-85.34a10.67 10.67 0 0 0-7.3-10.1z"/></svg>