<svg xmlns="http://www.w3.org/2000/svg" width="800" height="800" preserveAspectRatio="xMidYMid" viewBox="0 -101.5 512 512"><path d="M120.81 80.56h96.57v7.68h-87.72V146h82.49v7.68h-82.49v63.42h88.72v7.68h-97.57V80.56zm105.22 0h10.26l45.47 63.42 46.47-63.42L391.44 0 287.6 150.65l53.52 74.13h-10.67l-48.68-67.47-48.89 67.47h-10.46l53.92-74.13-50.3-70.09zm118.9 7.68v-7.68h110.04v7.68h-50.7v136.54h-8.84V88.24h-50.5zM0 80.56h11.06l152.59 228.32-63.06-84.1L9.25 91.47l-.4 133.3H0V80.58zm454.08 134.22c-1.8 0-3.16-1.4-3.16-3.2s1.35-3.22 3.16-3.22c1.83 0 3.17 1.4 3.17 3.21s-1.34 3.22-3.17 3.22zm8.7-8.45h4.74c.06 2.57 1.94 4.3 4.7 4.3 3.07 0 4.82-1.86 4.82-5.33V183.3h4.82v22.01c0 6.25-3.62 9.85-9.6 9.85-5.62 0-9.48-3.49-9.48-8.84zm25.39-.28h4.78c.4 2.96 3.29 4.83 7.44 4.83 3.88 0 6.72-2 6.72-4.76 0-2.37-1.8-3.8-5.92-4.77l-4-.97c-5.62-1.31-8.19-4.03-8.19-8.6 0-5.54 4.53-9.22 11.3-9.22 6.32 0 10.92 3.68 11.2 8.92h-4.69c-.45-2.87-2.95-4.66-6.57-4.66-3.8 0-6.35 1.84-6.35 4.64 0 2.22 1.64 3.5 5.69 4.44l3.42.84c6.37 1.49 9 4.08 9 8.75 0 5.95-4.6 9.68-11.97 9.68-6.9 0-11.52-3.55-11.86-9.12z"/></svg>