<svg xmlns="http://www.w3.org/2000/svg" width="800" height="800" viewBox="0 -101.5 512 512" preserveAspectRatio="xMidYMid" xmlns:v="https://vecta.io/nano"><path d="M120.81 80.561h96.568v7.675h-87.716v57.767h82.485v7.675h-82.485v63.423h88.722v7.675H120.81V80.561zm105.219 0h10.26l45.467 63.423 46.473-63.423L391.441 0l-103.85 150.649 53.515 74.128h-10.663l-48.686-67.462-48.887 67.462h-10.462l53.917-74.128-50.296-70.088zm118.899 7.675v-7.675h110.047v7.675h-50.698v136.54h-8.852V88.237h-50.497zM0 80.561h11.065l152.581 228.323-63.054-84.107L9.254 91.468l-.402 133.309H0V80.561zm454.084 134.224c-1.809 0-3.165-1.401-3.165-3.212s1.356-3.212 3.165-3.212c1.83 0 3.165 1.401 3.165 3.212s-1.335 3.212-3.165 3.212zm8.698-8.451h4.737c.065 2.565 1.938 4.29 4.694 4.29 3.079 0 4.823-1.854 4.823-5.325V183.31h4.823v22.011c0 6.252-3.617 9.852-9.602 9.852-5.619 0-9.473-3.492-9.473-8.839zm25.384-.28h4.78c.409 2.953 3.294 4.829 7.449 4.829 3.875 0 6.717-2.005 6.717-4.764 0-2.371-1.809-3.794-5.921-4.764l-4.005-.97c-5.619-1.315-8.181-4.031-8.181-8.602 0-5.54 4.521-9.227 11.303-9.227 6.308 0 10.916 3.686 11.196 8.925h-4.694c-.452-2.867-2.95-4.657-6.567-4.657-3.811 0-6.351 1.832-6.351 4.635 0 2.221 1.636 3.492 5.684 4.441l3.423.841c6.373 1.488 9 4.075 9 8.753 0 5.95-4.607 9.68-11.971 9.68-6.89 0-11.519-3.557-11.863-9.119z"/></svg>