<svg xmlns="http://www.w3.org/2000/svg" width="800" height="800" fill="#53c1de" viewBox="0 0 32 32"><path d="M18.68 15.98c0-1.44-1.2-2.6-2.68-2.6s-2.68 1.16-2.68 2.6 1.2 2.6 2.68 2.6 2.68-1.17 2.68-2.6z"/><path fill-rule="evenodd" d="M24.7 11.15c.57-2.23 1.28-6.36-1.23-7.76-2.5-1.4-5.74 1.28-7.46 2.88-1.7-1.59-5.05-4.25-7.55-2.84-2.5 1.4-1.72 5.46-1.15 7.7C5 11.79 1 13.17 1 15.99c0 2.8 3.98 4.3 6.3 4.95-.58 2.25-1.31 6.26 1.18 7.66 2.52 1.4 5.84-1.2 7.58-2.82C17.77 27.4 21 30 23.48 28.6c2.5-1.4 1.85-5.48 1.28-7.74C27 20.22 31 18.76 31 15.98c0-2.8-4.01-4.19-6.3-4.83zm-.28 8.52a28.7 28.7 0 0 0-1.52-3.69c.6-1.25 1.09-2.47 1.46-3.63 1.68.47 5.36 1.55 5.36 3.63 0 2.09-3.54 3.18-5.3 3.69zm-1.57 7.86c-1.86 1.04-4.63-1.46-5.9-2.65.84-.9 1.69-1.94 2.51-3.1a30.9 30.9 0 0 0 4.07-.6c.4 1.6 1.2 5.3-.68 6.35zM9.12 27.5c-1.86-1.04-1-4.61-.58-6.28 1.23.27 2.59.46 4.04.57.83 1.13 1.7 2.17 2.58 3.09-1.08 1.01-4.16 3.67-6.04 2.62zM2.28 15.98c0-2.1 3.66-3.18 5.38-3.65.37 1.19.87 2.43 1.46 3.68a29.69 29.69 0 0 0-1.48 3.72c-1.64-.45-5.36-1.65-5.36-3.75zM9.1 4.5c1.87-1.05 4.77 1.51 6.02 2.66a29.97 29.97 0 0 0-2.56 3.07 32.2 32.2 0 0 0-4 .6c-.47-1.8-1.32-5.28.54-6.33zm11.28 7.08 2.73.46a26 26 0 0 1-.96 2.5l-1.77-2.96zm-4.37-3.53a27 27 0 0 1 1.77 2.06h-3.55l1.78-2.06zm-6.15 6.5-.96-2.52 2.72-.45-1.76 2.97zm1.8 5.92-2.77-.43c.26-.83.59-1.7.97-2.57l1.79 3zm4.4 3.52a28.14 28.14 0 0 1-1.81-2.1h3.56L16.05 24zm6.1-6.57c.4.89.75 1.75 1.02 2.56a27.97 27.97 0 0 1-2.8.47l1.79-3.03zm-3.41 3.18a41.5 41.5 0 0 1-5.46 0 34.9 34.9 0 0 1-2.75-4.6 34.91 34.91 0 0 1 2.73-4.58c1.82-.14 3.65-.14 5.47 0 1.02 1.46 1.93 2.99 2.74 4.57a39.2 39.2 0 0 1-2.73 4.6zm4.08-16.13c1.87 1.04 1.04 4.76.63 6.37-1.25-.27-2.6-.48-4.01-.61a29.3 29.3 0 0 0-2.54-3.07c1.26-1.18 4.07-3.73 5.92-2.7z"/></svg>