<svg xmlns="http://www.w3.org/2000/svg" fill="#53c1de" viewBox="0 0 800 800"><path d="M463.63 297c0-32.22-26.94-58.35-60.2-58.35s-60.19 26.13-60.19 58.35 27 58.37 60.19 58.37 60.2-26.13 60.2-58.34Z"/><path fill-rule="evenodd" d="M598.91 188.66c12.71-50.08 28.69-142.94-27.64-174.44C515.21-17.12 442.26 42.93 403.73 79 365.3 43.29 290.31-16.52 234.05 15.07c-56 31.46-38.76 122.79-25.78 173.19C156 202.64 66.41 233.64 66.41 297c0 63.18 89.51 96.91 141.48 111.29C194.86 459 178.44 549 234.54 580.37 291 612 365.8 553.57 404.67 517.12c38.78 36.27 111 95 167.09 63.57 56.24-31.57 41.59-123.2 28.61-173.89 50.37-14.42 140.09-47.4 140.09-109.8 0-62.73-90.1-94-141.55-108.34zm-6.38 191.27a646.34 646.34 0 0 0-34.13-82.79 645.44 645.44 0 0 0 32.8-81.58c37.72 10.6 120.45 34.82 120.45 81.44 0 47.05-79.4 71.52-119.12 82.93zm-35.19 176.58c-41.84 23.48-104-32.71-132.61-59.43a660.89 660.89 0 0 0 56.51-69.56 694 694 0 0 0 91.29-13.64c9.14 35.86 26.85 119.06-15.19 142.63zm-308.4-.34c-41.83-23.39-22.71-103.71-13.12-141a694 694 0 0 0 90.84 12.74 685.73 685.73 0 0 0 57.86 69.31C360.2 520 291 579.65 248.94 556.15zM95.19 297c0-47.23 82.26-71.29 120.84-81.85a657 657 0 0 0 32.84 82.55 668.32 668.32 0 0 0-33.25 83.72c-36.78-10.21-120.4-37.14-120.4-84.42zm153.3-257.75c42-23.57 107.2 33.83 135.08 59.7a673.79 673.79 0 0 0-57.43 68.88 725.66 725.66 0 0 0-89.94 13.55c-10.47-40.64-29.68-118.59 12.29-142.13zm253.35 158.94 61.45 10.4a581 581 0 0 1-21.57 56.28l-39.88-66.68zm-98.07-79.29a605.29 605.29 0 0 1 39.68 46.42h-79.67l40-46.42zm-138.36 146L244 208.3l61.11-10.18-39.68 66.73zm40.31 133-62.13-9.68c6-18.63 13.28-38 21.84-57.7l40.27 67.38zm98.86 79.23Q383.16 454.6 364 430.06l80.13-.14-39.57 47.21zM542 329.51A584.47 584.47 0 0 1 564.66 387a627.68 627.68 0 0 1-62.88 10.4L542 329.54zm-76.8 71.27a932.84 932.84 0 0 1-122.75.23 785.44 785.44 0 0 1-61.69-103.33 783.65 783.65 0 0 1 61.36-103.13 836.79 836.79 0 0 1 122.85 0 877.42 877.42 0 0 1 61.54 102.7 880.67 880.67 0 0 1-61.29 103.49zm91.69-362.36c42 23.5 23.32 107 14.13 143.25a708.71 708.71 0 0 0-90.12-13.79 657.34 657.34 0 0 0-57-69c28.25-26.4 91.36-83.78 133-60.5z"/><path d="M190.22 633h27.6l21.4 83.8h.4V633h19.6v140h-22.6l-26.4-102.2h-.4V773h-19.6zm102.4 0h29.8l22.8 140h-22l-4-27.8v.4h-25l-4 27.4h-20.4zm24 93.6-9.8-69.2h-.4l-9.6 69.2zm47.2-73.6h-23v-20h68v20h-23v120h-22zm55.6-20h22v140h-22zm32.58 0h22.2l14.4 108.6h.4L503.42 633h20.2l-21.2 140h-29.2zm82.21 0h60v20h-38v37h30.2v20h-30.2v43h38v20h-60z"/></svg>