<svg xmlns="http://www.w3.org/2000/svg" width="800" height="800" viewBox="0 0 24 24" fill="none" xmlns:v="https://vecta.io/nano"><path fill-rule="evenodd" d="M22.286 0H1.709C.766 0 0 .777 0 1.73V22.27C0 23.223.766 24 1.709 24h20.577c.943 0 1.714-.777 1.714-1.73V1.73C24 .777 23.229 0 22.286 0zM7.254 20.571H3.696V9.118h3.563v11.454h-.005zM5.475 7.554c-1.141 0-2.062-.927-2.062-2.062s.921-2.062 2.062-2.062a2.07 2.07 0 0 1 2.063 2.062 2.06 2.06 0 0 1-2.062 2.063zm15.112 13.018H17.03V15c0-1.329-.027-3.037-1.848-3.037-1.854 0-2.137 1.446-2.137 2.941v5.668H9.488V9.118H12.9v1.564h.048c.477-.9 1.639-1.848 3.37-1.848 3.6 0 4.27 2.373 4.27 5.459v6.279z" fill="#758ca3"/></svg>