<svg xmlns="http://www.w3.org/2000/svg" fill="#000000" width="800" height="800" viewBox="0 0 72 72" xmlns:v="https://vecta.io/nano"><path d="M36.564 14.645c-11.671 0-21.167 9.495-21.167 21.166s9.495 21.166 21.167 21.166 21.168-9.494 21.168-21.166-9.496-21.166-21.168-21.166zm0 38.334c-9.465 0-17.167-7.701-17.167-17.167a17.19 17.19 0 0 1 17.167-17.166 17.19 17.19 0 0 1 17.168 17.166 17.19 17.19 0 0 1-17.168 17.167zm-1.898-30.673a11.6 11.6 0 0 0-9.929 5.655 1 1 0 0 0 .35 1.371c.16.095.336.14.51.14a1 1 0 0 0 .861-.489c1.711-2.885 4.856-4.677 8.208-4.677a1 1 0 1 0 0-2zm-10.035 8.158c-.529-.123-1.076.207-1.202.745-.195.826-.304 1.337-.304 2.27a1 1 0 1 0 2 0c0-.716.077-1.073.251-1.813a1 1 0 0 0-.745-1.202zM37.37 59.5a2 2 0 0 0-2 2v6a2 2 0 1 0 4 0v-6a2 2 0 0 0-2-2zm0-47a2 2 0 0 0 2-2v-6a2 2 0 1 0-4 0v6a2 2 0 0 0 2 2zM17.055 52.428l-4.242 4.242a2 2 0 0 0 0 2.828 1.99 1.99 0 0 0 1.414.586c.511 0 1.023-.195 1.414-.586l4.242-4.242a2 2 0 0 0-2.828-2.828zM54.531 19.78a1.99 1.99 0 0 0 1.414-.586l4.242-4.242a2 2 0 0 0-2.828-2.828l-4.242 4.242a2 2 0 0 0 0 2.828c.391.391.903.586 1.414.586zm-37.476-.586a1.99 1.99 0 0 0 1.414.586c.511 0 1.023-.195 1.414-.586a2 2 0 0 0 0-2.828l-4.242-4.242a2 2 0 0 0-2.828 2.828l4.242 4.242zm38.89 33.234a2 2 0 0 0-2.828 2.828l4.242 4.244a1.99 1.99 0 0 0 2.828 0 2 2 0 0 0 0-2.828l-4.242-4.244zM10.5 34.5h-6a2 2 0 1 0 0 4h6a2 2 0 1 0 0-4zm57 0h-6a2 2 0 1 0 0 4h6a2 2 0 1 0 0-4z"/></svg>